









<svg width="700" height="420"
     xmlns="http://www.w3.org/2000/svg">

  <rect
    x="0"
    y="0"
    width="700"
    height="420"
    fill="white">
  </rect>

  <style>
    .tick-label { font-family: sans-serif; fill: #333; }
    .axis-line, .tick-line { stroke: #666; }
    .legend-text { font-family: sans-serif; font-size: 12px; fill: #333; }
    .axis-title { font-family: sans-serif; font-size: 13px; fill: #333; }
  </style>

  <g transform="translate(0, 370)">
    <!-- axis orientation=bottom range=[60,640] ticks=8 -->
  <g class="axis axis-bottom" transform="translate(0, 0)">
    <line class="axis-line" x1="60" y1="0" x2="640" y2="0" stroke="currentColor" stroke-width="1"/>
    <g class="tick" transform="translate(60, 0)">
      <line class="tick-line" x1="0" y1="0" x2="0" y2="6" stroke="currentColor" stroke-width="1"/>
      <text class="tick-label" x="0" y="9" text-anchor="middle" dominant-baseline="hanging" dy="0.15em" >0</text>
    </g>
    <g class="tick" transform="translate(137.33, 0)">
      <line class="tick-line" x1="0" y1="0" x2="0" y2="6" stroke="currentColor" stroke-width="1"/>
      <text class="tick-label" x="0" y="9" text-anchor="middle" dominant-baseline="hanging" dy="0.15em" >10</text>
    </g>
    <g class="tick" transform="translate(214.67, 0)">
      <line class="tick-line" x1="0" y1="0" x2="0" y2="6" stroke="currentColor" stroke-width="1"/>
      <text class="tick-label" x="0" y="9" text-anchor="middle" dominant-baseline="hanging" dy="0.15em" >20</text>
    </g>
    <g class="tick" transform="translate(292, 0)">
      <line class="tick-line" x1="0" y1="0" x2="0" y2="6" stroke="currentColor" stroke-width="1"/>
      <text class="tick-label" x="0" y="9" text-anchor="middle" dominant-baseline="hanging" dy="0.15em" >30</text>
    </g>
    <g class="tick" transform="translate(369.33, 0)">
      <line class="tick-line" x1="0" y1="0" x2="0" y2="6" stroke="currentColor" stroke-width="1"/>
      <text class="tick-label" x="0" y="9" text-anchor="middle" dominant-baseline="hanging" dy="0.15em" >40</text>
    </g>
    <g class="tick" transform="translate(446.67, 0)">
      <line class="tick-line" x1="0" y1="0" x2="0" y2="6" stroke="currentColor" stroke-width="1"/>
      <text class="tick-label" x="0" y="9" text-anchor="middle" dominant-baseline="hanging" dy="0.15em" >50</text>
    </g>
    <g class="tick" transform="translate(524, 0)">
      <line class="tick-line" x1="0" y1="0" x2="0" y2="6" stroke="currentColor" stroke-width="1"/>
      <text class="tick-label" x="0" y="9" text-anchor="middle" dominant-baseline="hanging" dy="0.15em" >60</text>
    </g>
    <g class="tick" transform="translate(601.33, 0)">
      <line class="tick-line" x1="0" y1="0" x2="0" y2="6" stroke="currentColor" stroke-width="1"/>
      <text class="tick-label" x="0" y="9" text-anchor="middle" dominant-baseline="hanging" dy="0.15em" >70</text>
    </g>
  </g>

  </g>


  <line x1="60" y1="370.0" x2="60" y2="89.99999999999997" stroke="#666"></line>

  <line x1="54" y1="370.0" x2="60" y2="370.0" stroke="#666"></line>
  <text x="50" y="374.0" text-anchor="end" font-family="sans-serif" font-size="12" fill="#333">0.000</text>

  <line x1="54" y1="330.0" x2="60" y2="330.0" stroke="#666"></line>
  <text x="50" y="334.0" text-anchor="end" font-family="sans-serif" font-size="12" fill="#333">0.005</text>

  <line x1="54" y1="290.0" x2="60" y2="290.0" stroke="#666"></line>
  <text x="50" y="294.0" text-anchor="end" font-family="sans-serif" font-size="12" fill="#333">0.010</text>

  <line x1="54" y1="250.0" x2="60" y2="250.0" stroke="#666"></line>
  <text x="50" y="254.0" text-anchor="end" font-family="sans-serif" font-size="12" fill="#333">0.015</text>

  <line x1="54" y1="210.0" x2="60" y2="210.0" stroke="#666"></line>
  <text x="50" y="214.0" text-anchor="end" font-family="sans-serif" font-size="12" fill="#333">0.020</text>

  <line x1="54" y1="170.0" x2="60" y2="170.0" stroke="#666"></line>
  <text x="50" y="174.0" text-anchor="end" font-family="sans-serif" font-size="12" fill="#333">0.025</text>

  <line x1="54" y1="130.0" x2="60" y2="130.0" stroke="#666"></line>
  <text x="50" y="134.0" text-anchor="end" font-family="sans-serif" font-size="12" fill="#333">0.030</text>

  <line x1="54" y1="89.99999999999997" x2="60" y2="89.99999999999997" stroke="#666"></line>
  <text x="50" y="93.99999999999997" text-anchor="end" font-family="sans-serif" font-size="12" fill="#333">0.035</text>

  <path
    d="M 78.9931 362.434 Q 80.7942 362.434 82.5954 359.45 C 83.1958 359.45 85.8975 355.765 86.1977 355.765 C 86.7981 355.765 89.4999 351.381 89.8 351.381 C 90.4004 351.381 93.1022 346.342 93.4024 346.342 C 94.0028 346.342 96.7045 340.719 97.0047 340.719 C 97.6051 340.719 100.307 334.589 100.607 334.589 C 101.207 334.589 103.909 328.009 104.209 328.009 C 104.81 328.009 107.511 321 107.812 321 C 108.412 321 111.114 313.545 111.414 313.545 C 112.014 313.545 114.716 305.604 115.016 305.604 C 115.617 305.604 118.318 297.118 118.619 297.118 C 119.219 297.118 121.921 288.027 122.221 288.027 C 122.821 288.027 125.523 278.272 125.823 278.272 C 126.424 278.272 129.125 267.797 129.426 267.797 C 130.026 267.797 132.728 256.559 133.028 256.559 C 133.628 256.559 136.33 244.555 136.63 244.555 C 137.231 244.555 139.932 231.846 140.233 231.846 C 140.833 231.846 143.535 218.577 143.835 218.577 C 144.435 218.577 147.137 204.976 147.437 204.976 C 148.038 204.976 150.739 191.328 151.04 191.328 C 151.64 191.328 154.342 177.94 154.642 177.94 C 155.242 177.94 157.944 165.103 158.244 165.103 C 158.845 165.103 161.546 153.058 161.847 153.058 C 162.447 153.058 165.149 141.988 165.449 141.988 C 166.049 141.988 168.751 132.021 169.051 132.021 C 169.652 132.021 172.353 123.24 172.654 123.24 C 173.254 123.24 175.956 115.695 176.256 115.695 C 176.856 115.695 179.558 109.417 179.858 109.417 C 180.459 109.417 183.16 104.415 183.461 104.415 C 184.061 104.415 186.763 100.677 187.063 100.677 C 187.663 100.677 190.365 98.1555 190.665 98.1555 C 191.266 98.1555 193.967 96.7606 194.268 96.7606 C 194.868 96.7606 197.57 96.3562 197.87 96.3562 C 198.47 96.3562 201.172 96.7701 201.472 96.7701 C 202.073 96.7701 204.774 97.8137 205.075 97.8137 C 205.675 97.8137 208.377 99.3025 208.677 99.3025 C 209.277 99.3025 211.979 101.067 212.279 101.067 C 212.88 101.067 215.581 102.949 215.882 102.949 C 216.482 102.949 219.184 104.795 219.484 104.795 C 220.084 104.795 222.786 106.443 223.086 106.443 C 223.687 106.443 226.388 107.739 226.688 107.739 C 227.289 107.739 229.991 108.559 230.291 108.559 C 230.891 108.559 233.593 108.835 233.893 108.835 C 234.494 108.835 237.195 108.565 237.495 108.565 C 238.096 108.565 240.798 107.805 241.098 107.805 C 241.698 107.805 244.4 106.644 244.7 106.644 C 245.301 106.644 248.002 105.181 248.302 105.181 C 248.903 105.181 251.605 103.533 251.905 103.533 C 252.505 103.533 255.207 101.86 255.507 101.86 C 256.107 101.86 258.809 100.389 259.109 100.389 C 259.71 100.389 262.412 99.4105 262.712 99.4105 C 263.312 99.4105 266.014 99.2255 266.314 99.2255 C 266.914 99.2255 269.616 100.052 269.916 100.052 C 270.517 100.052 273.219 101.929 273.519 101.929 C 274.119 101.929 276.821 104.669 277.121 104.669 C 277.721 104.669 280.423 107.879 280.723 107.879 C 281.324 107.879 284.026 111.058 284.326 111.058 C 284.926 111.058 287.628 113.742 287.928 113.742 C 288.528 113.742 291.23 115.629 291.53 115.629 C 292.131 115.629 294.833 116.659 295.133 116.659 C 295.733 116.659 298.435 117.024 298.735 117.024 C 299.335 117.024 302.037 117.112 302.337 117.112 C 302.938 117.112 305.639 117.401 305.94 117.401 C 306.54 117.401 309.242 118.353 309.542 118.353 C 310.142 118.353 312.844 120.304 313.144 120.304 C 313.745 120.304 316.446 123.399 316.747 123.399 C 317.347 123.399 320.049 127.568 320.349 127.568 C 320.949 127.568 323.651 132.552 323.951 132.552 C 324.552 132.552 327.253 137.989 327.554 137.989 C 328.154 137.989 330.856 143.513 331.156 143.513 C 331.756 143.513 334.458 148.872 334.758 148.872 C 335.359 148.872 338.06 154.002 338.361 154.002 C 338.961 154.002 341.663 159.053 341.963 159.053 C 342.563 159.053 345.265 164.348 345.565 164.348 C 346.166 164.348 348.867 170.303 349.168 170.303 C 349.768 170.303 352.47 177.311 352.77 177.311 C 353.37 177.311 356.072 185.656 356.372 185.656 C 356.973 185.656 359.674 195.454 359.975 195.454 C 360.575 195.454 363.277 206.641 363.577 206.641 C 364.177 206.641 366.879 219.004 367.179 219.004 C 367.78 219.004 370.481 232.228 370.782 232.228 C 371.382 232.228 374.084 245.953 374.384 245.953 C 374.984 245.953 377.686 259.828 377.986 259.828 C 378.587 259.828 381.288 273.535 381.589 273.535 C 382.189 273.535 384.891 286.808 385.191 286.808 C 385.791 286.808 388.493 299.431 388.793 299.431 C 389.394 299.431 392.095 311.221 392.396 311.221 C 392.996 311.221 395.698 322.024 395.998 322.024 C 396.598 322.024 399.3 331.71 399.6 331.71 C 400.201 331.71 402.902 340.175 403.203 340.175 C 403.803 340.175 406.505 347.359 406.805 347.359 C 407.405 347.359 410.107 353.257 410.407 353.257 C 411.008 353.257 413.709 357.923 414.01 357.923 C 414.61 357.923 417.312 361.473 417.612 361.473 C 418.212 361.473 420.914 364.069 421.214 364.069 C 421.815 364.069 424.516 365.895 424.816 365.895 C 425.417 365.895 428.119 367.141 428.419 367.141 C 429.019 367.141 431.721 367.976 432.021 367.976 C 432.622 367.976 435.323 368.539 435.623 368.539"
    stroke="#69b3a2"
    stroke-width="2"
    fill="none">
  </path>

  <path
    d="M 161.191 362.93 Q 163.1 362.93 165.01 359.696 C 165.646 359.696 168.511 355.541 168.829 355.541 C 169.466 355.541 172.33 350.405 172.648 350.405 C 173.285 350.405 176.149 344.287 176.468 344.287 C 177.104 344.287 179.969 337.256 180.287 337.256 C 180.923 337.256 183.788 329.447 184.106 329.447 C 184.743 329.447 187.607 321.027 187.925 321.027 C 188.562 321.027 191.426 312.149 191.745 312.149 C 192.381 312.149 195.246 302.896 195.564 302.896 C 196.2 302.896 199.065 293.259 199.383 293.259 C 200.02 293.259 202.884 283.149 203.202 283.149 C 203.839 283.149 206.703 272.456 207.022 272.456 C 207.658 272.456 210.523 261.126 210.841 261.126 C 211.477 261.126 214.342 249.209 214.66 249.209 C 215.297 249.209 218.161 236.876 218.479 236.876 C 219.116 236.876 221.98 224.385 222.299 224.385 C 222.935 224.385 225.8 212.024 226.118 212.024 C 226.754 212.024 229.619 200.059 229.937 200.059 C 230.574 200.059 233.438 188.687 233.756 188.687 C 234.393 188.687 237.257 178.017 237.576 178.017 C 238.212 178.017 241.077 168.078 241.395 168.078 C 242.031 168.078 244.896 158.855 245.214 158.855 C 245.851 158.855 248.715 150.343 249.033 150.343 C 249.67 150.343 252.534 142.593 252.853 142.593 C 253.489 142.593 256.354 135.718 256.672 135.718 C 257.308 135.718 260.173 129.864 260.491 129.864 C 261.128 129.864 263.992 125.139 264.31 125.139 C 264.947 125.139 267.811 121.544 268.13 121.544 C 268.766 121.544 271.631 118.924 271.949 118.924 C 272.585 118.924 275.45 116.976 275.768 116.976 C 276.405 116.976 279.269 115.31 279.587 115.31 C 280.224 115.31 283.088 113.536 283.407 113.536 C 284.043 113.536 286.908 111.364 287.226 111.364 C 287.862 111.364 290.727 108.68 291.045 108.68 C 291.682 108.68 294.546 105.569 294.864 105.569 C 295.501 105.569 298.365 102.288 298.684 102.288 C 299.32 102.288 302.185 99.1873 302.503 99.1873 C 303.14 99.1873 306.004 96.6205 306.322 96.6205 C 306.959 96.6205 309.823 94.8687 310.141 94.8687 C 310.778 94.8687 313.642 94.0961 313.961 94.0961 C 314.597 94.0961 317.462 94.3279 317.78 94.3279 C 318.417 94.3279 321.281 95.4429 321.599 95.4429 C 322.236 95.4429 325.1 97.1828 325.418 97.1828 C 326.055 97.1828 328.919 99.1937 329.238 99.1937 C 329.874 99.1937 332.739 101.103 333.057 101.103 C 333.694 101.103 336.558 102.611 336.876 102.611 C 337.513 102.611 340.377 103.562 340.695 103.562 C 341.332 103.562 344.196 103.967 344.515 103.967 C 345.151 103.967 348.016 103.978 348.334 103.978 C 348.971 103.978 351.835 103.827 352.153 103.827 C 352.79 103.827 355.654 103.767 355.972 103.767 C 356.609 103.767 359.473 104.005 359.792 104.005 C 360.428 104.005 363.293 104.646 363.611 104.646 C 364.248 104.646 367.112 105.657 367.43 105.657 C 368.067 105.657 370.931 106.856 371.249 106.856 C 371.886 106.856 374.75 107.974 375.069 107.974 C 375.705 107.974 378.57 108.76 378.888 108.76 C 379.525 108.76 382.389 109.11 382.707 109.11 C 383.344 109.11 386.208 109.153 386.526 109.153 C 387.163 109.153 390.027 109.256 390.346 109.256 C 390.982 109.256 393.847 109.954 394.165 109.954 C 394.802 109.954 397.666 111.836 397.984 111.836 C 398.621 111.836 401.485 115.405 401.803 115.405 C 402.44 115.405 405.304 120.961 405.623 120.961 C 406.259 120.961 409.124 128.531 409.442 128.531 C 410.079 128.531 412.943 137.86 413.261 137.86 C 413.898 137.86 416.762 148.486 417.08 148.486 C 417.717 148.486 420.581 159.877 420.9 159.877 C 421.536 159.877 424.401 171.555 424.719 171.555 C 425.356 171.555 428.22 183.183 428.538 183.183 C 429.175 183.183 432.039 194.567 432.358 194.567 C 432.994 194.567 435.858 205.605 436.177 205.605 C 436.813 205.605 439.678 216.232 439.996 216.232 C 440.633 216.232 443.497 226.395 443.815 226.395 C 444.452 226.395 447.316 236.069 447.635 236.069 C 448.271 236.069 451.135 245.289 451.454 245.289 C 452.09 245.289 454.955 254.165 455.273 254.165 C 455.91 254.165 458.774 262.872 459.092 262.872 C 459.729 262.872 462.593 271.606 462.912 271.606 C 463.548 271.606 466.412 280.532 466.731 280.532 C 467.367 280.532 470.232 289.733 470.55 289.733 C 471.187 289.733 474.051 299.182 474.369 299.182 C 475.006 299.182 477.87 308.723 478.189 308.723 C 478.825 308.723 481.689 318.091 482.008 318.091 C 482.644 318.091 485.509 326.961 485.827 326.961 C 486.464 326.961 489.328 335.022 489.646 335.022 C 490.283 335.022 493.147 342.05 493.466 342.05 C 494.102 342.05 496.966 347.961 497.285 347.961 C 497.921 347.961 500.786 352.81 501.104 352.81 C 501.741 352.81 504.605 356.745 504.923 356.745 C 505.56 356.745 508.424 359.94 508.743 359.94 C 509.379 359.94 512.244 362.538 512.562 362.538 C 513.198 362.538 516.063 364.632 516.381 364.632 C 517.018 364.632 519.882 366.272 520.2 366.272 C 520.837 366.272 523.701 367.497 524.02 367.497 C 524.656 367.497 527.521 368.357 527.839 368.357 C 528.475 368.357 531.34 368.921 531.658 368.921 C 532.295 368.921 535.159 369.268 535.477 369.268 C 536.114 369.268 538.978 369.476 539.297 369.476"
    stroke="#ffcc66"
    stroke-width="2"
    fill="none">
  </path>

  <path
    d="M 256.605 353.709 Q 258.407 353.709 260.21 348.31 C 260.811 348.31 263.515 341.883 263.815 341.883 C 264.416 341.883 267.12 334.414 267.421 334.414 C 268.022 334.414 270.726 325.935 271.026 325.935 C 271.627 325.935 274.331 316.535 274.632 316.535 C 275.233 316.535 277.937 306.361 278.237 306.361 C 278.838 306.361 281.542 295.599 281.843 295.599 C 282.444 295.599 285.148 284.432 285.448 284.432 C 286.049 284.432 288.753 273.007 289.054 273.007 C 289.655 273.007 292.359 261.408 292.659 261.408 C 293.26 261.408 295.964 249.672 296.265 249.672 C 296.865 249.672 299.57 237.829 299.87 237.829 C 300.471 237.829 303.175 225.961 303.475 225.961 C 304.076 225.961 306.78 214.243 307.081 214.243 C 307.682 214.243 310.386 202.934 310.686 202.934 C 311.287 202.934 313.991 192.328 314.292 192.328 C 314.893 192.328 317.597 182.666 317.897 182.666 C 318.498 182.666 321.202 174.065 321.503 174.065 C 322.104 174.065 324.808 166.482 325.108 166.482 C 325.709 166.482 328.413 159.736 328.714 159.736 C 329.314 159.736 332.019 153.572 332.319 153.572 C 332.92 153.572 335.624 147.741 335.924 147.741 C 336.525 147.741 339.229 142.07 339.53 142.07 C 340.131 142.07 342.835 136.498 343.135 136.498 C 343.736 136.498 346.44 131.07 346.741 131.07 C 347.342 131.07 350.046 125.91 350.346 125.91 C 350.947 125.91 353.651 121.173 353.952 121.173 C 354.553 121.173 357.257 117.007 357.557 117.007 C 358.158 117.007 360.862 113.524 361.163 113.524 C 361.764 113.524 364.468 110.781 364.768 110.781 C 365.369 110.781 368.073 108.769 368.374 108.769 C 368.974 108.769 371.679 107.399 371.979 107.399 C 372.58 107.399 375.284 106.504 375.584 106.504 C 376.185 106.504 378.889 105.845 379.19 105.845 C 379.791 105.845 382.495 105.146 382.795 105.146 C 383.396 105.146 386.1 104.157 386.401 104.157 C 387.002 104.157 389.706 102.723 390.006 102.723 C 390.607 102.723 393.311 100.847 393.612 100.847 C 394.213 100.847 396.917 98.7127 397.217 98.7127 C 397.818 98.7127 400.522 96.6472 400.823 96.6472 C 401.424 96.6472 404.128 95.0351 404.428 95.0351 C 405.029 95.0351 407.733 94.1992 408.034 94.1992 C 408.634 94.1992 411.339 94.2967 411.639 94.2967 C 412.24 94.2967 414.944 95.2608 415.244 95.2608 C 415.845 95.2608 418.549 96.8127 418.85 96.8127 C 419.451 96.8127 422.155 98.5382 422.455 98.5382 C 423.056 98.5382 425.76 100.01 426.061 100.01 C 426.662 100.01 429.366 100.919 429.666 100.919 C 430.267 100.919 432.971 101.163 433.272 101.163 C 433.873 101.163 436.577 100.872 436.877 100.872 C 437.478 100.872 440.182 100.339 440.483 100.339 C 441.083 100.339 443.788 99.8971 444.088 99.8971 C 444.689 99.8971 447.393 99.7886 447.693 99.7886 C 448.294 99.7886 450.998 100.093 451.299 100.093 C 451.9 100.093 454.604 100.741 454.904 100.741 C 455.505 100.741 458.209 101.609 458.51 101.609 C 459.111 101.609 461.815 102.63 462.115 102.63 C 462.716 102.63 465.42 103.865 465.721 103.865 C 466.322 103.865 469.026 105.502 469.326 105.502 C 469.927 105.502 472.631 107.785 472.932 107.785 C 473.533 107.785 476.237 110.91 476.537 110.91 C 477.138 110.91 479.842 114.968 480.143 114.968 C 480.743 114.968 483.448 119.926 483.748 119.926 C 484.349 119.926 487.053 125.67 487.353 125.67 C 487.954 125.67 490.658 132.064 490.959 132.064 C 491.56 132.064 494.264 138.99 494.564 138.99 C 495.165 138.99 497.869 146.368 498.17 146.368 C 498.771 146.368 501.475 154.148 501.775 154.148 C 502.376 154.148 505.08 162.299 505.381 162.299 C 505.982 162.299 508.686 170.812 508.986 170.812 C 509.587 170.812 512.291 179.7 512.592 179.7 C 513.193 179.7 515.897 189 516.197 189 C 516.798 189 519.502 198.758 519.803 198.758 C 520.403 198.758 523.108 209 523.408 209 C 524.009 209 526.713 219.712 527.013 219.712 C 527.614 219.712 530.318 230.825 530.619 230.825 C 531.22 230.825 533.924 242.219 534.224 242.219 C 534.825 242.219 537.529 253.737 537.83 253.737 C 538.431 253.737 541.135 265.204 541.435 265.204 C 542.036 265.204 544.74 276.442 545.041 276.442 C 545.642 276.442 548.346 287.276 548.646 287.276 C 549.247 287.276 551.951 297.54 552.252 297.54 C 552.852 297.54 555.557 307.082 555.857 307.082 C 556.458 307.082 559.162 315.772 559.462 315.772 C 560.063 315.772 562.767 323.512 563.068 323.512 C 563.669 323.512 566.373 330.25 566.673 330.25 C 567.274 330.25 569.978 335.985 570.279 335.985 C 570.88 335.985 573.584 340.777 573.884 340.777 C 574.485 340.777 577.189 344.74 577.49 344.74 C 578.091 344.74 580.795 348.026 581.095 348.026 C 581.696 348.026 584.4 350.808 584.701 350.808 C 585.302 350.808 588.006 353.246 588.306 353.246 C 588.907 353.246 591.611 355.461 591.912 355.461 C 592.512 355.461 595.217 357.528 595.517 357.528 C 596.118 357.528 598.822 359.47 599.122 359.47 C 599.723 359.47 602.427 361.278 602.728 361.278 C 603.329 361.278 606.033 362.928 606.333 362.928 C 606.934 362.928 609.638 364.398 609.939 364.398 C 610.54 364.398 613.244 365.675 613.544 365.675"
    stroke="#ff6b6b"
    stroke-width="2"
    fill="none">
  </path>

  <text
    x="350.0"
    y="410"
    text-anchor="middle"
    class="axis-title">
    Urgencia de recapacitación
  </text>

  <text
    x="-210.0"
    y="20"
    transform="rotate(-90)"
    text-anchor="middle"
    class="axis-title">
    Density
  </text>

  <rect x="570" y="50" width="12" height="12" fill="#69b3a2"></rect>
  <text x="590" y="60" class="legend-text">Low</text>

  <rect x="570" y="70" width="12" height="12" fill="#ffcc66"></rect>
  <text x="590" y="80" class="legend-text">Medium</text>

  <rect x="570" y="90" width="12" height="12" fill="#ff6b6b"></rect>
  <text x="590" y="100" class="legend-text">High</text>

</svg>